<?xml version="1.0" encoding="utf-8" ?>
<svg baseProfile="full" height="295.0" version="1.1" viewBox="0 0 310.0 295.0" width="310.0" xmlns="http://www.w3.org/2000/svg" xmlns:ev="http://www.w3.org/2001/xml-events" xmlns:xlink="http://www.w3.org/1999/xlink"><defs /><rect fill="none" height="1" id="NOT_HANDLED" width="1" x="0" y="0" /><defs /><rect fill="none" height="1" id="NOT_HANDLED" width="1" x="0" y="0" /><defs /><polyline fill="none" points="75.0,85.0 95.0,85.0 110.0,115.0 140.0,55.0 170.0,115.0 200.0,55.0 215.0,85.0 235.0,85.0" stroke="rgb(0,0,0)" stroke-width="0.25mm" /><defs /><polyline fill="none" points="75.0,85.0 75.0,195.0" stroke="rgb(0,0,0)" stroke-width="0.25mm" /><defs /><polyline fill="none" points="75.0,195.0 103.0,195.0" stroke="rgb(0,0,0)" stroke-width="0.25mm" /><defs /><rect fill="rgb(192,192,192)" height="42.0" stroke="rgb(0,0,0)" stroke-width="0.25mm" width="90.0" x="103.0" y="174.0" /><defs /><polyline fill="none" points="103.0,174.0 223.0,174.0" stroke="rgb(0,0,0)" stroke-width="0.25mm" /><defs /><polyline fill="none" points="104.0,216.0 224.0,216.0" stroke="rgb(0,0,0)" stroke-width="0.25mm" /><defs /><polyline fill="none" points="193.0,195.0 235.0,195.0" stroke="rgb(0,0,0)" stroke-width="0.25mm" /><defs /><polyline fill="none" points="235.0,85.0 235.0,195.0" stroke="rgb(0,0,0)" stroke-width="0.25mm" /><defs /><polyline fill="none" points="65.0,125.0 75.0,125.0" stroke="rgb(0,0,0)" stroke-width="0.25mm" /><defs /><polyline fill="none" points="235.0,125.0 245.0,125.0" stroke="rgb(0,0,0)" stroke-width="0.25mm" /><defs /><polygon fill="rgb(128,128,128)" points="208.0,143.0 178.0,133.0 178.0,153.0 208.0,143.0" stroke="rgb(128,128,128)" stroke-width="0.25mm" /><defs /><polyline fill="none" points="98.0,143.0 178.0,143.0" stroke="rgb(0,0,0)" stroke-width="0.25mm" /><defs /><text alignment-baseline="middle" fill="rgb(0,0,255)" font-family="Verdana" font-size="18" text-anchor="middle" x="155.0" y="25.0">SpringDamper<tspan class="bbox" display="none">5.0 5.0 305.0 45.0</tspan><tspan class="data-bind" display="none">%name</tspan></text><defs /><text alignment-baseline="middle" fill="rgb(0,0,0)" font-family="Verdana" font-size="18" text-anchor="middle" x="155.0" y="275.0">d=d<tspan class="bbox" display="none">5.0 260.0 305.0 290.0</tspan><tspan class="data-bind" display="none">d=%d</tspan></text><defs /><text alignment-baseline="middle" fill="rgb(0,0,0)" font-family="Verdana" font-size="18" text-anchor="middle" x="155.0" y="240.0">c=c<tspan class="bbox" display="none">5.0 225.0 305.0 255.0</tspan><tspan class="data-bind" display="none">c=%c</tspan></text><defs /><polyline fill="none" points="55.0,225.0 55.0,205.0 150.0,205.0" stroke="rgb(191,0,0)" stroke-dasharray="1.0 2.0" stroke-width="0.25mm" /><defs /><g id="flange_a"><rect fill="rgb(0,127,0)" height="20.0" stroke="rgb(0,127,0)" stroke-width="0.25mm" width="20.0" x="45.0" y="115.0" /><defs /></g><g id="flange_b"><rect fill="rgb(255,255,255)" height="20.0" stroke="rgb(0,127,0)" stroke-width="0.25mm" width="20.0" x="245.0" y="115.0" /><defs /></g><g id="heatPort"><rect fill="rgb(191,0,0)" height="20.0" stroke="rgb(191,0,0)" stroke-width="0.25mm" width="20.0" x="45.0" y="215.0" /><defs /></g></svg>