<?xml version="1.0" encoding="utf-8" ?>
<svg baseProfile="full" height="230.0" version="1.1" viewBox="0 0 334.0 230.0" width="334.0" xmlns="http://www.w3.org/2000/svg" xmlns:ev="http://www.w3.org/2001/xml-events" xmlns:xlink="http://www.w3.org/1999/xlink"><defs /><polyline fill="none" points="129.0,225.0 149.0,205.0" stroke="rgb(0,0,0)" stroke-width="0.25mm" /><defs /><polyline fill="none" points="149.0,225.0 169.0,205.0" stroke="rgb(0,0,0)" stroke-width="0.25mm" /><defs /><polyline fill="none" points="169.0,225.0 189.0,205.0" stroke="rgb(0,0,0)" stroke-width="0.25mm" /><defs /><polyline fill="none" points="189.0,225.0 209.0,205.0" stroke="rgb(0,0,0)" stroke-width="0.25mm" /><defs /><polyline fill="none" points="149.0,205.0 209.0,205.0" stroke="rgb(0,0,0)" stroke-width="0.25mm" /><defs /><text alignment-baseline="middle" fill="rgb(0,0,0)" font-family="Verdana" font-size="18" text-anchor="middle" x="65.0" y="157.0">v_ref</text><defs /><polyline fill="none" points="149.0,137.0 209.0,137.0" stroke="rgb(0,0,0)" stroke-width="0.25mm" /><defs /><polyline fill="none" points="179.0,137.0 179.0,205.0" stroke="rgb(0,0,0)" stroke-width="0.25mm" /><defs /><polyline fill="none" points="209.0,147.0 199.0,157.0" stroke="rgb(0,0,0)" stroke-width="0.25mm" /><defs /><polyline fill="none" points="209.0,137.0 189.0,157.0" stroke="rgb(0,0,0)" stroke-width="0.25mm" /><defs /><polyline fill="none" points="199.0,137.0 179.0,157.0" stroke="rgb(0,0,0)" stroke-width="0.25mm" /><defs /><polyline fill="none" points="189.0,137.0 169.0,157.0" stroke="rgb(0,0,0)" stroke-width="0.25mm" /><defs /><polyline fill="none" points="179.0,137.0 159.0,157.0" stroke="rgb(0,0,0)" stroke-width="0.25mm" /><defs /><polyline fill="none" points="169.0,137.0 149.0,157.0" stroke="rgb(0,0,0)" stroke-width="0.25mm" /><defs /><polyline fill="none" points="159.0,137.0 149.0,147.0" stroke="rgb(0,0,0)" stroke-width="0.25mm" /><defs /><rect fill="rgb(215,215,215)" height="40.0" stroke="rgb(0,127,0)" stroke-width="0.25mm" width="200.0" x="79.0" y="85.0" /><defs /><polyline fill="none" points="150.0,73.0 209.0,73.0" stroke="rgb(0,0,0)" stroke-width="0.25mm" /><defs /><polyline fill="none" points="179.0,53.0 179.0,73.0" stroke="rgb(0,0,0)" stroke-width="0.25mm" /><defs /><text alignment-baseline="middle" fill="rgb(0,0,255)" font-family="Verdana" font-size="18" text-anchor="middle" x="179.0" y="25.0">Speed<tspan class="bbox" display="none">29.0 5.0 329.0 45.0</tspan><tspan class="data-bind" display="none">%name</tspan></text><defs /><text alignment-baseline="middle" fill="rgb(0,0,0)" font-family="Verdana" font-size="18" text-anchor="middle" x="268.0" y="156.0">exact=</text><defs /><text alignment-baseline="middle" fill="rgb(0,0,0)" font-family="Verdana" font-size="18" text-anchor="middle" x="260.0" y="194.0">exact<tspan class="bbox" display="none">201.0 181.0 319.0 207.0</tspan><tspan class="data-bind" display="none">%exact</tspan></text><defs /><g id="flange"><rect fill="rgb(255,255,255)" height="20.0" stroke="rgb(0,127,0)" stroke-width="0.25mm" width="20.0" x="269.0" y="95.0" /><defs /></g><g id="support"><rect fill="rgb(175,175,175)" height="20.0" width="20.0" x="169.0" y="195.0" /><defs /><rect fill="rgb(0,127,0)" height="12.0" stroke="rgb(0,127,0)" stroke-width="0.25mm" width="12.0" x="173.0" y="199.0" /><defs /></g><g id="v_ref"><polygon fill="rgb(0,0,127)" points="39.0,85.0 79.0,105.0 39.0,125.0" stroke="rgb(0,0,127)" stroke-width="0.25mm" /><defs /></g></svg>