<?xml version="1.0" encoding="utf-8" ?>
<svg baseProfile="full" height="230.0" version="1.1" viewBox="0 0 310.0 230.0" width="310.0" xmlns="http://www.w3.org/2000/svg" xmlns:ev="http://www.w3.org/2001/xml-events" xmlns:xlink="http://www.w3.org/1999/xlink"><defs /><polyline fill="none" points="105.0,225.0 125.0,205.0" stroke="rgb(0,0,0)" stroke-width="0.25mm" /><defs /><polyline fill="none" points="125.0,225.0 145.0,205.0" stroke="rgb(0,0,0)" stroke-width="0.25mm" /><defs /><polyline fill="none" points="145.0,225.0 165.0,205.0" stroke="rgb(0,0,0)" stroke-width="0.25mm" /><defs /><polyline fill="none" points="165.0,225.0 185.0,205.0" stroke="rgb(0,0,0)" stroke-width="0.25mm" /><defs /><polyline fill="none" points="125.0,205.0 185.0,205.0" stroke="rgb(0,0,0)" stroke-width="0.25mm" /><defs /><polygon fill="rgb(215,215,215)" points="55.0,95.0 175.0,95.0 175.0,64.0 245.0,105.0 175.0,146.0 175.0,115.0 55.0,115.0 55.0,95.0" stroke="rgb(0,127,0)" stroke-width="0.25mm" /><defs /><text alignment-baseline="middle" fill="rgb(0,0,0)" font-family="Verdana" font-size="18" text-anchor="middle" x="40.0" y="152.0">f</text><defs /><text alignment-baseline="middle" fill="rgb(0,0,255)" font-family="Verdana" font-size="18" text-anchor="middle" x="155.0" y="35.0">Force<tspan class="bbox" display="none">5.0 15.0 305.0 55.0</tspan><tspan class="data-bind" display="none">%name</tspan></text><defs /><polyline fill="none" points="125.0,165.0 185.0,165.0" stroke="rgb(0,0,0)" stroke-width="0.25mm" /><defs /><polyline fill="none" points="155.0,165.0 155.0,206.0" stroke="rgb(0,0,0)" stroke-width="0.25mm" /><defs /><polyline fill="none" points="125.0,185.0 145.0,165.0" stroke="rgb(0,0,0)" stroke-width="0.25mm" /><defs /><polyline fill="none" points="145.0,185.0 165.0,165.0" stroke="rgb(0,0,0)" stroke-width="0.25mm" /><defs /><polyline fill="none" points="165.0,185.0 185.0,165.0" stroke="rgb(0,0,0)" stroke-width="0.25mm" /><defs /><polygon fill="rgb(128,128,128)" points="94.0,155.0 125.0,145.0 125.0,165.0 94.0,155.0" stroke="rgb(0,0,0)" stroke-width="0.25mm" /><defs /><polyline fill="none" points="124.0,155.0 205.0,155.0" stroke="rgb(0,0,0)" stroke-width="0.25mm" /><defs /><polyline fill="none" points="105.0,185.0 125.0,165.0" stroke="rgb(0,0,0)" stroke-width="0.25mm" /><defs /><g id="flange"><rect fill="rgb(255,255,255)" height="20.0" stroke="rgb(0,127,0)" stroke-width="0.25mm" width="20.0" x="245.0" y="95.0" /><defs /></g><g id="support"><rect fill="rgb(175,175,175)" height="20.0" width="20.0" x="145.0" y="195.0" /><defs /><rect fill="rgb(0,127,0)" height="12.0" stroke="rgb(0,127,0)" stroke-width="0.25mm" width="12.0" x="149.0" y="199.0" /><defs /></g><g id="f"><polygon fill="rgb(0,0,127)" points="15.0,85.0 55.0,105.0 15.0,125.0" stroke="rgb(0,0,127)" stroke-width="0.25mm" /><defs /></g></svg>